<svg width="230" height="110" viewBox="0 0 230 110" fill="none" xmlns="http://www.w3.org/2000/svg">
<g filter="url(#filter0_d_211_260)">
<rect x="27" y="11" width="176" height="56" rx="28" fill="#FFF1C4"/>
<path d="M93.7518 49.228C92.9438 49.228 92.1278 49.164 91.3038 49.036C90.4798 48.908 89.7118 48.724 88.9998 48.484V45.844C89.4958 46.012 90.0158 46.152 90.5598 46.264C91.1118 46.376 91.6598 46.464 92.2038 46.528C92.7478 46.584 93.2638 46.612 93.7518 46.612C95.0398 46.612 95.9678 46.396 96.5358 45.964C97.1038 45.532 97.3878 44.92 97.3878 44.128C97.3878 43.448 97.1758 42.924 96.7518 42.556C96.3358 42.18 95.5758 41.852 94.4718 41.572L93.2718 41.26C91.7358 40.868 90.5758 40.268 89.7918 39.46C89.0158 38.644 88.6278 37.572 88.6278 36.244C88.6278 34.612 89.2118 33.332 90.3798 32.404C91.5478 31.476 93.2998 31.012 95.6358 31.012C96.3958 31.012 97.1278 31.06 97.8318 31.156C98.5438 31.244 99.1798 31.372 99.7398 31.54V34.18C99.1558 33.996 98.5238 33.86 97.8438 33.772C97.1638 33.676 96.4838 33.628 95.8038 33.628C94.8358 33.628 94.0598 33.728 93.4758 33.928C92.8998 34.128 92.4798 34.412 92.2158 34.78C91.9598 35.14 91.8318 35.572 91.8318 36.076C91.8318 36.716 92.0198 37.22 92.3958 37.588C92.7798 37.948 93.4678 38.26 94.4598 38.524L95.6598 38.836C96.7878 39.116 97.7158 39.484 98.4438 39.94C99.1798 40.388 99.7238 40.94 100.076 41.596C100.428 42.244 100.604 43.016 100.604 43.912C100.604 45.024 100.332 45.976 99.7878 46.768C99.2438 47.56 98.4598 48.168 97.4358 48.592C96.4198 49.016 95.1918 49.228 93.7518 49.228ZM109.034 49.24C107.49 49.24 106.21 49.008 105.194 48.544C104.186 48.072 103.434 47.336 102.938 46.336C102.442 45.336 102.194 44.04 102.194 42.448C102.194 40.968 102.422 39.728 102.878 38.728C103.342 37.728 104.006 36.976 104.87 36.472C105.734 35.96 106.778 35.704 108.002 35.704C109.178 35.704 110.17 35.96 110.978 36.472C111.794 36.976 112.41 37.736 112.826 38.752C113.242 39.768 113.45 41.032 113.45 42.544V43.396H103.97V41.5H111.05L110.498 41.764C110.498 40.772 110.402 39.984 110.21 39.4C110.018 38.816 109.734 38.4 109.358 38.152C108.982 37.896 108.518 37.768 107.966 37.768C107.414 37.768 106.942 37.892 106.55 38.14C106.158 38.388 105.858 38.804 105.65 39.388C105.45 39.972 105.35 40.76 105.35 41.752V42.976C105.35 43.92 105.482 44.676 105.746 45.244C106.018 45.804 106.454 46.208 107.054 46.456C107.654 46.696 108.458 46.816 109.466 46.816C109.97 46.816 110.498 46.776 111.05 46.696C111.602 46.616 112.17 46.504 112.754 46.36V48.772C112.082 48.94 111.442 49.06 110.834 49.132C110.234 49.204 109.634 49.24 109.034 49.24ZM115.419 49V35.908H118.035L118.251 37.288H118.407C118.911 36.776 119.499 36.384 120.171 36.112C120.843 35.84 121.567 35.704 122.343 35.704C123.191 35.704 123.943 35.868 124.599 36.196C125.263 36.524 125.783 37.052 126.159 37.78C126.535 38.5 126.723 39.464 126.723 40.672V49H123.567V40.852C123.567 39.948 123.375 39.32 122.991 38.968C122.607 38.616 122.079 38.44 121.407 38.44C121.087 38.44 120.755 38.484 120.411 38.572C120.067 38.66 119.735 38.8 119.415 38.992C119.095 39.184 118.815 39.436 118.575 39.748V49H115.419ZM134.024 49.228C133.064 49.228 132.18 49.012 131.372 48.58C130.572 48.14 129.932 47.444 129.452 46.492C128.972 45.532 128.732 44.276 128.732 42.724C128.732 41.188 128.996 39.9 129.524 38.86C130.052 37.812 130.832 37.024 131.864 36.496C132.896 35.96 134.168 35.692 135.68 35.692C135.984 35.692 136.284 35.704 136.58 35.728C136.884 35.752 137.16 35.784 137.408 35.824V29.608H140.564V49H137.912L137.708 47.608H137.552C137.168 48.088 136.68 48.48 136.088 48.784C135.496 49.08 134.808 49.228 134.024 49.228ZM134.912 46.624C135.368 46.624 135.82 46.532 136.268 46.348C136.716 46.164 137.096 45.876 137.408 45.484V38.308C137.176 38.26 136.904 38.22 136.592 38.188C136.28 38.148 135.972 38.128 135.668 38.128C134.428 38.128 133.492 38.464 132.86 39.136C132.228 39.808 131.912 40.92 131.912 42.472C131.912 43.544 132.036 44.38 132.284 44.98C132.54 45.58 132.892 46.004 133.34 46.252C133.796 46.5 134.32 46.624 134.912 46.624Z" fill="#FDC921"/>
</g>
<defs>
<filter id="filter0_d_211_260" x="0" y="0" width="230" height="110" filterUnits="userSpaceOnUse" color-interpolation-filters="sRGB">
<feFlood flood-opacity="0" result="BackgroundImageFix"/>
<feColorMatrix in="SourceAlpha" type="matrix" values="0 0 0 0 0 0 0 0 0 0 0 0 0 0 0 0 0 0 127 0" result="hardAlpha"/>
<feMorphology radius="1" operator="erode" in="SourceAlpha" result="effect1_dropShadow_211_260"/>
<feOffset dy="16"/>
<feGaussianBlur stdDeviation="14"/>
<feColorMatrix type="matrix" values="0 0 0 0 0.0562384 0 0 0 0 0.121895 0 0 0 0 0.209437 0 0 0 0.18 0"/>
<feBlend mode="normal" in2="BackgroundImageFix" result="effect1_dropShadow_211_260"/>
<feBlend mode="normal" in="SourceGraphic" in2="effect1_dropShadow_211_260" result="shape"/>
</filter>
</defs>
</svg>
